<?xml version="1.0" standalone="no"?><!DOCTYPE svg PUBLIC "-//W3C//DTD SVG 1.1//EN" "http://www.w3.org/Graphics/SVG/1.1/DTD/svg11.dtd"><svg t="1581562315260" class="icon" viewBox="0 0 1024 1024" version="1.1" xmlns="http://www.w3.org/2000/svg" p-id="1206" xmlns:xlink="http://www.w3.org/1999/xlink" width="200" height="200"><defs><style type="text/css"></style></defs><path d="M139.03 726.77H37.73c-6.77 0-13.27-2.69-18.06-7.48a25.523 25.523 0 0 1-7.48-18.05v-570.8c0-14.11 11.43-25.53 25.53-25.53H643.6c14.11 0 25.53 11.43 25.53 25.53v569.61c0 6.77-2.69 13.27-7.48 18.05a25.529 25.529 0 0 1-18.06 7.48H466.96c-14.1 0-25.53-11.43-25.53-25.53s11.43-25.53 25.53-25.53h151.12V155.98H63.28v519.7h75.75c14.11 0 25.55 11.43 25.55 25.54s-11.44 25.55-25.55 25.55z m0 0" fill="#333333" p-id="1207"></path><path d="M306.19 917.86c-74.55 0-135.2-60.65-135.2-135.2 0-74.55 60.65-135.2 135.2-135.2 74.55 0 135.21 60.64 135.21 135.2s-60.66 135.2-135.21 135.2z m0-219.32c-46.38 0-84.12 37.74-84.12 84.12s37.74 84.12 84.12 84.12 84.11-37.74 84.11-84.12-37.73-84.12-84.11-84.12z m513.98 219.32c-74.55 0-135.2-60.65-135.2-135.2 0-74.55 60.65-135.2 135.2-135.2 74.55 0 135.21 60.64 135.21 135.2s-60.66 135.2-135.21 135.2z m0-219.32c-46.39 0-84.12 37.74-84.12 84.12s37.73 84.12 84.12 84.12c46.38 0 84.11-37.74 84.11-84.12s-37.73-84.12-84.11-84.12z m165.96-17.56c-6.77 0-13.27-2.69-18.05-7.48a25.529 25.529 0 0 1-7.48-18.06v-191.4L808.08 278.01H659.94a25.55 25.55 0 0 1-22.12-12.77 25.538 25.538 0 1 1 22.12-38.31h160.23c7.65 0 14.9 3.44 19.76 9.34l165.96 202.44a25.577 25.577 0 0 1 5.79 16.2v200.54c-0.02 14.11-11.45 25.53-25.55 25.53z m0 0" fill="#333333" p-id="1208"></path><path d="M966.42 486.35H754.65c-9.12 0-17.55-4.86-22.11-12.77a25.534 25.534 0 0 1 22.11-38.3h211.78c14.11 0.01 25.53 11.44 25.53 25.54-0.01 14.1-11.44 25.54-25.54 25.53z m-828.19-124a25.539 25.539 0 0 1-23.62-15.76 25.529 25.529 0 0 1 5.55-27.84L231.1 207.81c9.97-9.98 26.15-9.98 36.12 0 9.97 9.97 9.97 26.14 0 36.12L156.29 354.86c-5 4.98-11.54 7.49-18.06 7.49z m36.14 135.76a25.519 25.519 0 0 1-23.61-15.77 25.51 25.51 0 0 1 5.55-27.84L369.8 241.01c9.97-9.97 26.15-9.97 36.12 0 9.97 9.98 9.97 26.15 0 36.12L192.43 490.62a25.521 25.521 0 0 1-18.06 7.49z m0 0" fill="#333333" p-id="1209"></path></svg>