<?xml version="1.0" standalone="no"?><!DOCTYPE svg PUBLIC "-//W3C//DTD SVG 1.1//EN" "http://www.w3.org/Graphics/SVG/1.1/DTD/svg11.dtd"><svg t="1581562679688" class="icon" viewBox="0 0 1024 1024" version="1.1" xmlns="http://www.w3.org/2000/svg" p-id="1622" xmlns:xlink="http://www.w3.org/1999/xlink" width="200" height="200"><defs><style type="text/css"></style></defs><path d="M922.337486 396.650229c-20.457491 0-34.092498 13.635007-34.092498 34.092498v436.40987c0 47.727505-34.102458 88.642487-81.839923 88.642487H172.25273c-47.737465 0-102.287454-40.914982-102.287454-88.642487V232.990303c0-47.727505 54.549989-95.46497 102.287454-95.464971h361.402391c20.457491 0 34.092498-13.635007 34.092498-34.092498s-13.635007-34.092498-34.092498-34.092498H172.25273C76.78776 69.340336 1.78028 137.525332 1.78028 232.990303v634.172254c0 95.46497 75.00748 156.837443 170.47245 156.837443h634.162295c95.46497 0 150.014959-61.372472 150.014959-156.837443V437.555251c0-20.457491-13.635007-40.905022-34.092498-40.905022m62.378415-313.615126L933.960607 32.269849c-38.06647-38.06647-101.520547-38.06647-139.587017 0l-88.821764 107.864959-482.205168 469.516345v12.688823l-63.444117 209.375546 44.410882 38.066471 196.686722-69.788529h12.688824l463.171933-488.539621 107.864959-88.831723c38.05651-38.06647 38.05651-101.510587-0.00996-139.587017M248.724305 780.960229l31.722058-88.821764 57.099705 57.109665-88.821763 31.712099m145.931429-63.444117l-88.821764-88.831724 437.784327-431.449875 82.487312 82.487312-431.449875 437.794287m545.649285-545.659246l-63.444117 63.444117-95.166175-95.166175 63.444117-63.444117c6.344412 0 19.033235-6.344412 25.377646-6.344412 6.344412 0 19.033235 6.344412 25.377647 6.344412l50.765254 50.755293c6.334452 12.688823 6.334452 31.732018-6.354372 44.410882" fill="#333333" p-id="1623"></path></svg>