<?xml version="1.0" standalone="no"?><!DOCTYPE svg PUBLIC "-//W3C//DTD SVG 1.1//EN" "http://www.w3.org/Graphics/SVG/1.1/DTD/svg11.dtd"><svg t="1581562459848" class="icon" viewBox="0 0 1024 1024" version="1.1" xmlns="http://www.w3.org/2000/svg" p-id="1484" xmlns:xlink="http://www.w3.org/1999/xlink" width="200" height="200"><defs><style type="text/css"></style></defs><path d="M947.2 369.87H76.8v448a64.02 64.02 0 0 0 18.74 45.26 64.02 64.02 0 0 0 45.26 18.74h742.4c16.97 0 33.25-6.74 45.25-18.74a63.96 63.96 0 0 0 18.74-45.26v-448z m-870.4-76.79h870.4v-89.6a64.02 64.02 0 0 0-18.74-45.26c-12-12-28.28-18.74-45.25-18.74h-742.4c-16.97 0-33.25 6.74-45.26 18.74a64.02 64.02 0 0 0-18.74 45.26v89.6z m729.6 409.6c21.2 0 38.4 17.19 38.4 38.4 0 21.21-17.19 38.4-38.4 38.4h-128c-21.21 0-38.4-17.19-38.4-38.4 0-21.2 17.19-38.4 38.4-38.4h128z m-665.6-640h742.4c77.76 0 140.8 63.04 140.8 140.8v614.4c0 77.76-63.04 140.8-140.8 140.8h-742.4c-77.76 0-140.8-63.04-140.8-140.8v-614.4c0-77.76 63.04-140.8 140.8-140.8z m0 0" fill="#333333" p-id="1485"></path></svg>