<?xml version="1.0" standalone="no"?><!DOCTYPE svg PUBLIC "-//W3C//DTD SVG 1.1//EN" "http://www.w3.org/Graphics/SVG/1.1/DTD/svg11.dtd"><svg t="1581562138776" class="icon" viewBox="0 0 1025 1024" version="1.1" xmlns="http://www.w3.org/2000/svg" p-id="926" xmlns:xlink="http://www.w3.org/1999/xlink" width="200.1953125" height="200"><defs><style type="text/css"></style></defs><path d="M880.02 577.05c-9.25 0-18.5-3.53-25.56-10.59L747.62 459.61c-14.11-14.11-14.11-37 0-51.12 14.11-14.11 37.01-14.11 51.12 0l81.29 81.28 81.29-81.28c14.11-14.11 37-14.11 51.11 0 14.12 14.12 14.12 37.01 0 51.12L905.59 566.46c-7.06 7.06-16.32 10.59-25.57 10.59z m0 0" fill="#333333" p-id="927"></path><path d="M460.28 970.69c-62.12 0-122.4-12.17-179.17-36.18-54.82-23.19-104.04-56.37-146.3-98.63-42.26-42.26-75.44-91.48-98.63-146.29C12.17 632.82 0 572.53 0 510.42c0-62.12 12.17-122.4 36.19-179.17 23.18-54.82 56.36-104.04 98.62-146.3 42.26-42.26 91.48-75.44 146.3-98.62 56.77-24.02 117.05-36.19 179.17-36.19 62.12 0 122.4 12.17 179.17 36.19 54.81 23.18 104.03 56.36 146.29 98.62 42.26 42.26 75.44 91.48 98.63 146.3 24.01 56.77 36.18 117.05 36.18 179.17 0 19.96-16.19 36.15-36.15 36.15-19.96 0-36.15-16.19-36.15-36.15 0-103.64-40.35-201.07-113.64-274.35-73.28-73.28-170.71-113.64-274.34-113.64-103.64 0-201.07 40.36-274.35 113.64-73.27 73.28-113.63 170.71-113.63 274.35 0 103.63 40.36 201.06 113.64 274.34 73.28 73.28 170.71 113.64 274.35 113.64 69.48 0 137.63-18.57 197.09-53.71 57.77-34.14 105.99-82.93 139.45-141.07 9.95-17.3 32.05-23.26 49.36-13.3 17.3 9.95 23.26 32.06 13.3 49.36-39.67 68.94-96.84 126.78-165.33 167.25-70.59 41.71-151.46 63.76-233.87 63.76z m0 0" fill="#333333" p-id="928"></path><path d="M407.29 474.82c-10.27 0-20.29-5.26-25.92-14.73L275.33 281.75c-8.5-14.3-3.8-32.78 10.49-41.28 14.3-8.5 32.79-3.81 41.29 10.5l106.03 178.32c8.5 14.3 3.8 32.79-10.5 41.29a29.915 29.915 0 0 1-15.35 4.24z m105.97 0a30.04 30.04 0 0 1-15.37-4.24c-14.3-8.5-19-26.99-10.5-41.29L593.43 250.97c8.5-14.3 26.98-19 41.28-10.5s19 26.99 10.5 41.28L539.19 460.09c-5.63 9.47-15.65 14.73-25.93 14.73z m0 0" fill="#333333" p-id="929"></path><path d="M622.94 498.91H297.61c-16.64 0-30.12-13.48-30.12-30.12s13.48-30.12 30.12-30.12h325.33c16.63 0 30.12 13.48 30.12 30.12 0.01 16.64-13.48 30.12-30.12 30.12z m-31.33 125.31H328.94c-16.63 0-30.12-13.48-30.12-30.12 0-16.63 13.49-30.12 30.12-30.12h262.68c16.63 0 30.12 13.49 30.12 30.12 0 16.64-13.49 30.12-30.13 30.12z m0 0" fill="#333333" p-id="930"></path><path d="M460.28 784.59c-16.64 0-30.12-13.48-30.12-30.12V495.3c0-16.64 13.48-30.12 30.12-30.12 16.63 0 30.12 13.49 30.12 30.12v259.18c0 16.63-13.49 30.11-30.12 30.11z m0 0" fill="#333333" p-id="931"></path></svg>