<?xml version="1.0" standalone="no"?><!DOCTYPE svg PUBLIC "-//W3C//DTD SVG 1.1//EN" "http://www.w3.org/Graphics/SVG/1.1/DTD/svg11.dtd"><svg t="1581562428849" class="icon" viewBox="0 0 1024 1024" version="1.1" xmlns="http://www.w3.org/2000/svg" p-id="1346" xmlns:xlink="http://www.w3.org/1999/xlink" width="200" height="200"><defs><style type="text/css"></style></defs><path d="M910.451935 190.162297L576.03995 17.667915c-40.479401-21.123596-89.76779-21.123596-130.247191 0L111.370787 191.9201c-45.762797 21.123596-75.685393 70.411985-75.685394 123.205992v392.499376c0 52.803995 29.922597 100.324594 75.685394 124.963795l336.179775 174.252185c19.365793 10.556804 42.237203 15.8402 65.118602 15.8402 22.881398 0 44.004994-5.283396 65.118601-15.8402l332.66417-172.484394c47.520599-24.639201 75.685393-72.1598 75.685393-124.973783V315.126092c0-52.803995-29.912609-102.082397-75.685393-124.963795zM479.230961 79.270911c10.556804-5.283396 21.123596-8.799001 31.690387-8.799001 10.556804 0 22.871411 1.757803 31.6804 7.041199l334.411985 172.494382c5.283396 1.76779 8.799001 5.283396 14.082397 8.799001L510.921348 455.930087 130.736579 262.322097c3.515605-3.525593 8.799001-7.041199 14.082397-8.799001L479.230961 79.270911zM144.818976 769.228464c-24.639201-12.314607-38.721598-36.963795-38.721598-63.360799V327.450687l140.813983 72.1598v158.401997c0 14.082397 7.041199 26.397004 19.355805 31.6804l24.639201 12.324594c1.757803 1.76779 5.283396 1.76779 7.031211 1.76779 10.556804 0 17.598002-7.041199 17.598003-17.598002V434.806492l158.401997 80.968789v424.179775L144.818976 769.228464z m732.194757 0l-330.89638 172.484395V515.775281l369.617978-188.334582v378.416979c0 26.406991-14.072409 51.05618-38.721598 63.370786z m0 0" fill="#333333" p-id="1347"></path></svg>