<?xml version="1.0" standalone="no"?><!DOCTYPE svg PUBLIC "-//W3C//DTD SVG 1.1//EN" "http://www.w3.org/Graphics/SVG/1.1/DTD/svg11.dtd"><svg class="icon" width="200px" height="200.00px" viewBox="0 0 1024 1024" version="1.1" xmlns="http://www.w3.org/2000/svg"><path fill="#2c2c2c" d="M749.72 604.41c-69.49 0-128 58.52-128 128 0 69.49 58.52 128 128 128 69.49 0 128-58.52 128-128 0-32.91-14.63-65.83-36.57-91.43-25.61-21.94-58.52-36.57-91.43-36.57z m0 182.86c-29.26 0-54.86-25.6-54.86-54.86 0-29.25 25.6-54.85 54.86-54.85 14.63 0 29.26 7.32 40.23 14.63 10.97 7.32 14.63 25.6 14.63 40.23-0.01 29.25-25.61 54.85-54.86 54.85z m0 0"  /><path fill="#2c2c2c" d="M1009.37 670.24c-29.26-7.31-51.2-25.6-65.83-47.54-14.63-25.6-18.29-54.86-10.97-80.46 0-3.66 0-10.97-3.66-14.63-25.6-21.94-54.85-40.23-87.77-51.2-3.66 0-10.97 0-14.63 3.66-18.28 21.94-47.54 32.91-76.8 32.91-29.26 0-54.86-10.97-76.8-32.91-3.66-3.66-10.97-3.66-14.63-3.66-32.91 10.97-62.17 29.26-87.77 51.2-3.65 3.66-7.32 7.32-3.65 14.63 7.32 25.6 3.65 54.86-10.97 80.46-14.63 25.6-40.23 43.88-65.83 47.54-3.66 0-7.31 3.66-10.97 10.97-7.32 32.92-7.32 65.83 0 102.4 0 3.66 3.66 7.32 10.97 10.98 29.26 7.31 51.2 21.94 65.83 47.54 14.63 25.6 18.29 54.86 10.97 80.46 0 3.65 0 10.97 3.65 14.63 25.6 21.94 54.86 40.23 87.77 51.2h3.65c3.66 0 7.32 0 10.97-3.66 18.29-21.94 47.54-32.91 76.8-32.91 29.26 0 54.85 10.97 76.8 32.91 3.66 3.66 7.32 3.66 14.63 3.66 32.91-10.97 62.17-29.26 87.77-51.2 3.66-3.66 7.32-7.32 3.66-14.63-10.97-25.6-7.32-58.52 7.32-80.46 14.63-25.6 40.22-43.88 65.83-47.54 3.66 0 7.32-3.66 10.97-10.98 7.32-32.91 7.32-65.83 0-102.4 0.01-3.65-3.65-7.31-7.31-10.97z m-62.17 91.43c-25.6 7.32-47.54 25.6-62.17 47.54-14.63 21.94-18.29 51.2-10.97 73.14-14.63 14.63-32.91 21.94-54.86 29.26-18.29-18.29-43.89-29.26-73.15-29.26-25.6 0-51.2 10.97-73.14 29.26-18.29-7.32-36.57-18.29-54.85-29.26 7.32-25.6 3.65-51.2-10.97-73.14-14.63-21.94-36.57-40.23-62.17-47.54-3.66-21.94-3.66-40.23 0-62.17 25.6-7.32 47.54-25.6 62.17-47.54 14.63-21.94 18.29-51.2 10.97-73.14 14.63-14.63 32.91-21.94 54.85-29.26 18.29 18.29 43.89 29.26 73.14 29.26 25.6 0 51.2-10.97 73.15-29.26 18.28 7.32 36.57 18.29 54.86 29.26-7.32 25.6-3.66 51.2 10.97 73.14 14.63 21.95 36.57 40.23 62.17 47.54 3.66 21.94 3.66 43.88 0 62.17z m-837.48 43.89h73.14c0-120.69 98.74-219.43 219.43-219.43 32.91 0 65.83 7.32 95.08 21.94 14.63-21.94 29.26-40.23 47.54-58.52-7.32-3.65-14.63-7.31-18.29-10.97 36.57-32.91 62.17-80.46 62.17-135.31 0-102.4-80.46-182.86-182.86-182.86S223.09 300.87 223.09 403.27c0 54.85 21.94 102.4 62.17 135.31-106.06 47.55-175.54 149.95-175.54 266.98zM402.29 293.55c62.17 0 109.71 47.54 109.71 109.72 0 62.17-47.54 109.72-109.71 109.72-62.18 0-109.72-47.54-109.72-109.72 0-62.17 47.54-109.72 109.72-109.72z m0 0"  /><path fill="#2c2c2c" d="M950.86 37.56H73.14C32.91 37.56 0 70.47 0 110.7v731.43c0 40.23 32.91 73.14 73.14 73.14h384c-7.32-21.94-10.97-47.54-14.63-73.14h-332.8c-21.94 0-36.57-18.29-36.57-36.57V147.27c0-18.29 14.63-36.57 36.57-36.57H914.29c21.94 0 36.57 18.29 36.57 36.57V469.1c25.6 10.98 51.2 25.6 73.14 43.89V110.7c0-40.23-32.91-73.14-73.14-73.14z m0 0"  /><path fill="#2c2c2c" d="M694.85 293.55h182.86c21.95 0 36.57-14.63 36.57-36.57 0-21.95-14.63-36.57-36.57-36.57H694.85c-21.94 0-36.57 14.63-36.57 36.57 0.01 21.95 14.63 36.57 36.57 36.57z m0 146.29h109.72c21.94 0 36.57-14.63 36.57-36.57 0-21.94-14.63-36.57-36.57-36.57H694.85c-21.94 0-36.57 14.63-36.57 36.57 0.01 21.94 14.63 36.57 36.57 36.57z m0 0"  /></svg>