<?xml version="1.0" standalone="no"?><!DOCTYPE svg PUBLIC "-//W3C//DTD SVG 1.1//EN" "http://www.w3.org/Graphics/SVG/1.1/DTD/svg11.dtd"><svg class="icon" width="200px" height="200.00px" viewBox="0 0 1024 1024" version="1.1" xmlns="http://www.w3.org/2000/svg"><path fill="#2c2c2c" d="M620.8 339.2c0-51.2-38.4-89.6-89.6-89.6s-89.6 38.4-89.6 89.6 38.4 89.6 89.6 89.6 89.6-38.4 89.6-89.6zM928 819.2c-12.8-12.8-38.4-19.2-70.4-25.6-19.2-6.4-57.6-6.4-83.2-6.4h-6.4c-12.8 0-19.2 12.8-19.2 25.6s12.8 25.6 25.6 25.6h25.6c51.2 6.4 76.8 12.8 83.2 25.6 6.4 6.4 12.8 19.2 12.8 25.6 0 12.8-25.6 32-89.6 51.2-70.4 19.2-166.4 25.6-275.2 25.6-115.2 0-204.8-6.4-275.2-25.6-76.8-19.2-96-44.8-96-51.2 0-12.8 6.4-19.2 12.8-25.6 12.8-6.4 32-12.8 70.4-19.2h32c12.8 0 25.6-12.8 25.6-25.6s-6.4-19.2-19.2-25.6h-6.4c-64 0-102.4 12.8-134.4 25.6-25.6 19.2-44.8 44.8-44.8 76.8 0 25.6 12.8 51.2 44.8 70.4 19.2 12.8 51.2 25.6 89.6 32 70.4 19.2 172.8 25.6 288 25.6 121.6 0 204.8-6.4 275.2-25.6 44.8-6.4 83.2-25.6 102.4-38.4 25.6-19.2 44.8-38.4 51.2-64 12.8-38.4 6.4-51.2-19.2-76.8zM486.4 851.2c12.8 12.8 25.6 19.2 44.8 19.2 12.8 0 32-6.4 44.8-19.2 57.6-76.8 102.4-147.2 166.4-249.6 70.4-115.2 115.2-211.2 115.2-275.2 0-83.2-32-166.4-89.6-224-64-64-140.8-96-224-96h-12.8c-83.2 0-160 32-224 96s-96 147.2-89.6 224c-6.4 64 32 166.4 102.4 275.2 64 108.8 115.2 172.8 166.4 249.6z m-128-704c51.2-51.2 115.2-76.8 172.8-76.8 64 0 128 25.6 172.8 76.8 51.2 51.2 76.8 102.4 76.8 172.8 0 32-19.2 89.6-64 172.8-44.8 76.8-96 160-172.8 268.8 0 6.4-6.4 6.4-12.8 6.4s-12.8 0-12.8-6.4c-147.2-204.8-236.8-371.2-236.8-441.6 0-70.4 25.6-121.6 76.8-172.8z" /></svg>