<?xml version="1.0" standalone="no"?><!DOCTYPE svg PUBLIC "-//W3C//DTD SVG 1.1//EN" "http://www.w3.org/Graphics/SVG/1.1/DTD/svg11.dtd"><svg class="icon" width="200px" height="200.00px" viewBox="0 0 1024 1024" version="1.1" xmlns="http://www.w3.org/2000/svg"><path fill="#2c2c2c" d="M912 752a25.6 25.6 0 1 0 51.2 0 25.6 25.6 0 1 0-51.2 0z m25.6-121.6a25.6 25.6 0 1 0 51.2 0 25.6 25.6 0 1 0-51.2 0zM675.2 284.8c12.8 0 25.6-9.6 25.6-25.6s-9.6-25.6-25.6-25.6h-38.4l54.4-51.2c9.6-9.6 12.8-25.6 0-35.2-12.8-9.6-22.4-6.4-35.2 3.2L579.2 224l-73.6-73.6c-9.6-9.6-25.6-12.8-38.4-3.2-12.8 9.6-6.4 28.8 3.2 38.4l51.2 51.2h-38.4c-12.8 0-25.6 9.6-25.6 25.6s9.6 25.6 25.6 25.6h73.6v41.6h-73.6c-12.8 0-25.6 9.6-25.6 25.6s9.6 25.6 25.6 25.6h73.6v25.6c0 12.8 9.6 25.6 25.6 25.6 12.8 0 25.6-9.6 25.6-25.6v-25.6h70.4c12.8 0 25.6-9.6 25.6-25.6s-9.6-25.6-25.6-25.6H608v-44.8h67.2zM304 563.2c0 16 6.4 22.4 12.8 22.4 16 0 19.2-3.2 22.4-9.6 3.2-19.2 9.6-35.2 35.2-35.2s28.8 12.8 35.2 35.2c0 6.4 6.4 9.6 12.8 9.6h9.6s3.2 0 6.4-3.2 6.4-9.6 6.4-19.2c0-25.6-22.4-60.8-70.4-57.6-44.8 3.2-70.4 35.2-70.4 57.6zM899.2 780.8c-9.6 0-16 3.2-19.2 9.6 0 0-32 44.8-105.6 86.4V928h-80s-9.6-32-35.2-41.6c-28.8-9.6-48 12.8-48 12.8H448c-9.6-6.4-16-16-41.6-12.8-28.8 6.4-48 44.8-48 44.8h-64v-70.4C249.6 838.4 192 793.6 176 736c-12.8-25.6-35.2-32-54.4-35.2-12.8 0-25.6-6.4-38.4-3.2v-128h48c28.8 0 38.4-22.4 51.2-48 12.8-48 28.8-80 54.4-108.8 12.8-16 28.8-28.8 44.8-38.4v-76.8h41.6c0 48-3.2 99.2 48 176h425.6c3.2-6.4 6.4-12.8 9.6-22.4 6.4-12.8 12.8-32 19.2-54.4 60.8 48 108.8 102.4 115.2 208v25.6h48c0-160-92.8-240-150.4-284.8 3.2-22.4 3.2-41.6 3.2-60.8C838.4 176 739.2 54.4 595.2 48c-169.6-9.6-252.8 115.2-268.8 204.8-9.6 0-22.4 3.2-35.2 0-16-6.4-48-16-67.2-12.8 3.2 25.6 3.2 51.2 6.4 76.8l3.2 38.4c-12.8 9.6-28.8 22.4-41.6 38.4-22.4 28.8-48 67.2-64 128H80c-22.4 0-48 12.8-48 38.4v150.4c0 22.4 22.4 35.2 35.2 35.2h57.6c3.2 12.8 9.6 32 16 48 16 28.8 44.8 57.6 99.2 96V944c0 22.4 12.8 32 35.2 35.2h115.2c9.6 0 32 0 35.2-35.2h204.8c3.2 6.4 3.2 12.8 6.4 16 6.4 9.6 12.8 16 28.8 16h115.2s38.4 3.2 35.2-44.8v-32c32-19.2 57.6-38.4 80-64 3.2-3.2 6.4-9.6 12.8-12.8 3.2-3.2 6.4-9.6 6.4-16 9.6-12.8 0-25.6-16-25.6zM368 281.6c3.2-60.8 73.6-201.6 227.2-192h9.6c99.2 6.4 185.6 102.4 192 192 3.2 57.6-6.4 92.8-19.2 115.2-6.4 12.8-6.4 12.8-12.8 28.8H403.2c-6.4-6.4-9.6-12.8-16-25.6-12.8-22.4-22.4-54.4-19.2-118.4z" /></svg>