<?xml version="1.0" standalone="no"?><!DOCTYPE svg PUBLIC "-//W3C//DTD SVG 1.1//EN" "http://www.w3.org/Graphics/SVG/1.1/DTD/svg11.dtd"><svg class="icon" width="200px" height="200.00px" viewBox="0 0 1024 1024" version="1.1" xmlns="http://www.w3.org/2000/svg"><path fill="#2c2c2c" d="M512 0C229.2 0 0 229.3 0 512s229.2 512 512 512 512-229.2 512-512S794.7 0 512 0z m139.1 806.9H396.5c-6.3 0-11.4-5.1-11.4-11.4 0-6.3 5.1-11.4 11.4-11.4h254.7c6.3 0 11.4 5.1 11.4 11.4 0 6.3-5.1 11.4-11.5 11.4z m0-128.6H396.5c-6.3 0-11.4-5.1-11.4-11.4 0-6.3 5.1-11.4 11.4-11.4h254.7c6.3 0 11.4 5.1 11.4 11.4 0 6.2-5.1 11.4-11.5 11.4z m0-128.7H396.5c-6.3 0-11.4-5.1-11.4-11.4 0-6.3 5.1-11.4 11.4-11.4h254.7c6.3 0 11.4 5.1 11.4 11.4 0 6.3-5.1 11.4-11.5 11.4z m165.3-91c-1.7 4.2-5.9 7.1-10.5 7.1h-48.7v382.4c0 6.3-5.1 11.4-11.4 11.4-6.3 0-11.4-5.1-11.4-11.4V454.2c0-6.3 5.1-11.4 11.4-11.4h32.6L522.6 186.9 266.7 442.8h30.1c6.3 0 11.4 5.1 11.4 11.4v393.9c0 6.3-5.1 11.4-11.4 11.4-6.3 0-11.4-5.1-11.4-11.4V465.7h-46.2c-4.6 0-8.8-2.7-10.5-7.1-1.7-4.3-0.8-9.2 2.5-12.5l283.5-283.5c2.2-2.2 5-3.3 8.1-3.3s5.9 1.3 8.1 3.3l283.3 283.5c3 3.3 4.1 8.3 2.2 12.5z m0 0"  /></svg>