<?xml version="1.0" standalone="no"?><!DOCTYPE svg PUBLIC "-//W3C//DTD SVG 1.1//EN" "http://www.w3.org/Graphics/SVG/1.1/DTD/svg11.dtd"><svg class="icon" width="200px" height="200.00px" viewBox="0 0 1024 1024" version="1.1" xmlns="http://www.w3.org/2000/svg"><path fill="#2c2c2c" d="M982.744318 313.263486C956.972003 252.428836 920.111599 197.68764 873.06214 150.738074c-46.949566-46.949566-101.690762-83.80997-162.525412-109.682177C647.504439 14.484441 580.476441 0.998927 511.45059 0.998927c-69.025851 0-136.053848 13.485514-199.086138 40.05697C251.529802 66.928105 196.788606 103.688616 149.83904 150.738074c-46.949566 46.949566-83.80997 101.690762-109.682177 162.525412C13.485514 376.395669 0 443.323773 0 512.349624c0 69.125744 13.585406 136.053848 40.156863 199.086138C66.02907 772.370305 102.789582 827.111501 149.83904 874.061067c46.949566 46.949566 101.690762 83.80997 162.525412 109.682178 63.03229 26.771242 129.960394 40.256755 199.086138 40.256755 69.125744 0 136.053848-13.485514 199.086138-40.256755C771.371378 957.871037 826.112574 921.110526 873.06214 874.061067c46.949566-46.949566 83.80997-101.690762 109.682178-162.525412 26.771242-63.03229 40.156863-129.960394 40.156862-199.086138 0-69.125744-13.585406-136.053848-40.156862-199.186031zM511.45059 997.128865c-267.212955 0-484.679348-217.466394-484.679348-484.779241S244.237635 27.570383 511.45059 27.570383c267.312848 0 484.779241 217.466394 484.779241 484.779241S778.663545 997.128865 511.45059 997.128865z m0 0"  /><path fill="#2c2c2c" d="M208.07648 446.91991l18.879719 18.979612 58.237441-58.23744v425.343088h26.571456V380.89084L511.45059 181.405131l204.080773 203.98088v440.127207H742.202712V412.05736l53.842162 53.842162 18.879719-18.979612L511.45059 143.5458 208.07648 446.91991z m0 0"  /><path fill="#2c2c2c" d="M407.662082 525.735245h208.975514v26.771242H407.662082v-26.771242z m0 118.67252h208.975514v26.771242H407.662082v-26.771242z m0 124.466296h208.975514v26.771242H407.662082v-26.771242z m0 0"  /></svg>