<?xml version="1.0" standalone="no"?><!DOCTYPE svg PUBLIC "-//W3C//DTD SVG 1.1//EN" "http://www.w3.org/Graphics/SVG/1.1/DTD/svg11.dtd"><svg class="icon" width="200px" height="200.00px" viewBox="0 0 1024 1024" version="1.1" xmlns="http://www.w3.org/2000/svg"><path fill="#2c2c2c" d="M240.9 30.1c28.5 0 56.1 5.6 82.1 16.6 25.1 10.6 47.7 25.8 67 45.2 19.4 19.4 34.6 41.9 45.2 67 11 26 16.6 53.6 16.6 82.1v210.8H240.9c-28.5 0-56.1-5.6-82.1-16.6-25.1-10.6-47.7-25.8-67-45.2-19.4-19.4-34.6-41.9-45.2-67-11-26-16.6-53.6-16.6-82.1 0-28.5 5.6-56.1 16.6-82.1 10.6-25.1 25.8-47.7 45.2-67 19.4-19.4 41.9-34.6 67-45.2 26.1-10.9 53.7-16.5 82.1-16.5m0-30.1C107.9 0 0 107.9 0 240.9c0 133.1 107.9 241 240.9 241h240.9v-241C481.9 107.9 374 0 240.9 0zM783.1 30.1c28.5 0 56.1 5.6 82.1 16.6 25.1 10.6 47.7 25.8 67 45.2 19.4 19.4 34.6 41.9 45.2 67 11 26 16.6 53.6 16.6 82.1 0 28.5-5.6 56.1-16.6 82.1-10.6 25.1-25.8 47.7-45.2 67-19.4 19.4-41.9 34.6-67 45.2-26 11-53.6 16.6-82.1 16.6H572.2v-211c0-28.5 5.6-56.1 16.6-82.1 10.6-25.1 25.8-47.7 45.2-67 19.4-19.4 41.9-34.6 67-45.2 26-10.9 53.6-16.5 82.1-16.5m0-30.1c-133.1 0-241 107.9-241 240.9v240.9H783c133.1 0 240.9-107.9 240.9-240.9C1024 107.9 916.1 0 783.1 0z"  /><path fill="#2c2c2c" d="M955.8 199c-4.8 0-9.3-3.1-10.8-8-22-71.5-87.1-119.5-162-119.5-6.2 0-11.3-5.1-11.3-11.3s5.1-11.3 11.3-11.3c41.9 0 81.7 13.3 115.1 38.3 32.3 24.2 56.6 58.7 68.4 97.2 1.8 6-1.5 12.3-7.5 14.1-1 0.4-2.1 0.5-3.2 0.5zM963.8 252.2c-6.2 0-11.3-5.1-11.3-11.3 0-6.9-0.4-13.9-1.2-20.7-0.8-6.2 3.7-11.8 9.8-12.6 6.2-0.7 11.8 3.7 12.6 9.8 0.9 7.7 1.4 15.6 1.4 23.4 0 6.4-5.1 11.4-11.3 11.4zM451.8 572.2V783c0 28.5-5.6 56.1-16.6 82.1-10.6 25.1-25.8 47.7-45.2 67-19.4 19.4-41.9 34.6-67 45.2-26 11-53.6 16.6-82.1 16.6-28.5 0-56.1-5.6-82.1-16.6-25.1-10.6-47.7-25.8-67-45.2-19.4-19.4-34.6-41.9-45.2-67-11-26-16.6-53.6-16.6-82.1 0-28.5 5.6-56.1 16.6-82.1 10.6-25.1 25.8-47.7 45.2-67 19.4-19.4 41.9-34.6 67-45.2 26-11 53.6-16.6 82.1-16.6h210.9m30.1-30h-241C107.9 542.1 0 650 0 783.1c0 133 107.9 240.9 240.9 240.9 133.1 0 240.9-107.9 240.9-240.9v-241h0.1zM783.1 572.2c28.5 0 56.1 5.6 82.1 16.6 25.1 10.6 47.7 25.8 67 45.2 19.4 19.4 34.6 41.9 45.2 67 11 26 16.6 53.6 16.6 82.1 0 28.5-5.6 56.1-16.6 82.1-10.6 25.1-25.8 47.7-45.2 67-19.4 19.4-41.9 34.6-67 45.2-26 11-53.6 16.6-82.1 16.6-28.5 0-56.1-5.6-82.1-16.6-25.1-10.6-47.7-25.8-67-45.2-19.4-19.4-34.6-41.9-45.2-67-11-26-16.6-53.6-16.6-82.1V572.2h210.9m0-30.1h-241V783c0 133.1 107.9 240.9 240.9 240.9 133.1 0 240.9-107.9 240.9-240.9 0.1-133-107.8-240.9-240.8-240.9z"  /></svg>