<?xml version="1.0" standalone="no"?><!DOCTYPE svg PUBLIC "-//W3C//DTD SVG 1.1//EN" "http://www.w3.org/Graphics/SVG/1.1/DTD/svg11.dtd"><svg class="icon" width="200px" height="200.00px" viewBox="0 0 1024 1024" version="1.1" xmlns="http://www.w3.org/2000/svg"><path fill="#2c2c2c" d="M241.8 32.1c28.4 0 55.9 5.6 81.8 16.5 25 10.6 47.5 25.7 66.8 45.1 19.3 19.3 34.5 41.8 45.1 66.8 11 25.9 16.5 53.4 16.5 81.8v210.2H241.8c-28.4 0-55.9-5.6-81.8-16.5-25-10.6-47.5-25.7-66.8-45.1-19.3-19.3-34.5-41.8-45.1-66.8-11-25.9-16.5-53.4-16.5-81.8s5.6-55.9 16.5-81.8c10.6-25 25.7-47.5 45.1-66.8C112.5 74.4 135 59.2 160 48.6c25.9-10.9 53.5-16.5 81.8-16.5m0-30C109.2 2.1 1.6 109.7 1.6 242.3c0 132.7 107.6 240.2 240.2 240.2H482V242.3C482.1 109.7 374.5 2.1 241.8 2.1zM782.3 2.1c-132.7 0-240.2 107.6-240.2 240.2v240.2h240.2c132.7 0 240.2-107.6 240.2-240.2C1022.6 109.7 915 2.1 782.3 2.1z m161.5 190.5C921.9 121.3 857 73.4 782.3 73.4c-6.2 0-11.3-5-11.3-11.3s5-11.3 11.3-11.3c41.8 0 81.5 13.2 114.8 38.2 32.2 24.2 56.4 58.6 68.2 96.9 1.8 5.9-1.5 12.2-7.5 14.1-1.1 0.3-2.2 0.5-3.3 0.5-4.7 0.1-9.2-3-10.7-7.9z m18.7 61c-6.2 0-11.3-5-11.3-11.3 0-6.9-0.4-13.8-1.2-20.6-0.8-6.2 3.6-11.8 9.8-12.5 6.2-0.8 11.8 3.6 12.5 9.8 0.9 7.7 1.4 15.5 1.4 23.3 0.1 6.3-5 11.3-11.2 11.3zM482.1 542.6H241.8C109.2 542.6 1.6 650.2 1.6 782.8c0 132.7 107.6 240.2 240.2 240.2C374.5 1023 482 915.4 482 782.8V542.6zM782.3 572.6c28.4 0 55.9 5.6 81.8 16.5 25 10.6 47.5 25.7 66.8 45.1 19.3 19.3 34.5 41.8 45.1 66.8 11 25.9 16.5 53.4 16.5 81.8s-5.6 55.9-16.5 81.8c-10.6 25-25.7 47.5-45.1 66.8-19.3 19.3-41.8 34.5-66.8 45.1-25.9 11-53.4 16.5-81.8 16.5s-55.9-5.6-81.8-16.5c-25-10.6-47.5-25.7-66.8-45.1-19.3-19.3-34.5-41.8-45.1-66.8-11-25.9-16.5-53.4-16.5-81.8V572.6h210.2m0-30H542.1v240.2c0 132.7 107.6 240.2 240.2 240.2 132.7 0 240.2-107.6 240.2-240.2 0.1-132.6-107.5-240.2-240.2-240.2z"  /></svg>