<?xml version="1.0" standalone="no"?><!DOCTYPE svg PUBLIC "-//W3C//DTD SVG 1.1//EN" "http://www.w3.org/Graphics/SVG/1.1/DTD/svg11.dtd"><svg class="icon" width="200px" height="200.00px" viewBox="0 0 1024 1024" version="1.1" xmlns="http://www.w3.org/2000/svg"><path fill="#2c2c2c" d="M992.3 1021.6H31.9V306.2L470.3 14.7c25.4-16.9 58.1-16.9 83.5 0l438.5 291.4v715.5z m-936.5-24h912.5V319L540.6 34.7a51.4 51.4 0 0 0-57 0L55.8 319v678.6z"  /><path fill="#2c2c2c" d="M228.3 295.7c-2.5 0-5-1.2-6.5-3.5-2.4-3.6-1.4-8.5 2.2-10.9l222.1-147.7c3.6-2.4 8.5-1.4 10.9 2.2 2.4 3.6 1.4 8.5-2.2 10.9L232.6 294.4c-1.3 0.9-2.8 1.3-4.3 1.3zM154.3 346.1a9.8 9.8 0 0 1-8.1-4.3c-3-4.5-1.8-10.5 2.7-13.4l48.4-32.2c4.5-3 10.5-1.8 13.4 2.7 3 4.5 1.8 10.5-2.7 13.4l-48.4 32.2c-1.6 1.1-3.4 1.6-5.3 1.6zM617.8 1018.2H378.4c-6.6 0-12-5.4-12-12V766.8c0-6.6 5.4-12 12-12h239.4c6.6 0 12 5.4 12 12v239.4c0 6.7-5.4 12-12 12z m-227.4-23.9h215.5V778.8H390.4v215.5z"  /></svg>