<?xml version="1.0" standalone="no"?><!DOCTYPE svg PUBLIC "-//W3C//DTD SVG 1.1//EN" "http://www.w3.org/Graphics/SVG/1.1/DTD/svg11.dtd"><svg class="icon" width="200px" height="200.00px" viewBox="0 0 1024 1024" version="1.1" xmlns="http://www.w3.org/2000/svg"><path fill="#2c2c2c" d="M547.2 24.7c-21.3-14.1-49-14.1-70.2 0L43.8 312.6v697h348.6V770.8h239.4v238.8h348.5v-697L547.2 24.7zM208.1 312.3l-48.4 32.2c-1.6 1.1-3.5 1.6-5.3 1.6a9.8 9.8 0 0 1-8.1-4.3c-3-4.5-1.8-10.5 2.7-13.4l48.4-32.2c4.5-3 10.5-1.8 13.4 2.7 2.9 4.5 1.7 10.5-2.7 13.4z m246.6-165.5L232.6 294.4c-1.3 0.9-2.8 1.3-4.3 1.3-2.5 0-5-1.2-6.5-3.5-2.4-3.6-1.4-8.5 2.2-10.9l222.1-147.7c3.6-2.4 8.5-1.4 10.9 2.2s1.3 8.6-2.3 11z"  /></svg>