<?xml version="1.0" standalone="no"?><!DOCTYPE svg PUBLIC "-//W3C//DTD SVG 1.1//EN" "http://www.w3.org/Graphics/SVG/1.1/DTD/svg11.dtd"><svg class="icon" width="200px" height="200.00px" viewBox="0 0 1024 1024" version="1.1" xmlns="http://www.w3.org/2000/svg"><path fill="#2c2c2c" d="M512 48c36.7 0 72.4 7.2 105.9 21.4 32.4 13.7 61.5 33.3 86.5 58.3s44.6 54.1 58.3 86.5C776.8 247.6 784 283.3 784 320c0 39.4-8.2 77.3-24.4 112.8-15.7 34.3-38 64.6-66.2 89.9l-54.5 48.8 66.5 30.5c79.6 36.6 147.2 94.8 195.3 168.3 40.5 62 65.4 132.3 72.9 205.6H50.5c7.6-73.4 32.4-143.7 72.9-205.6C171.5 696.8 239 638.6 318.7 602l66.5-30.5-54.5-48.8c-28.3-25.3-50.5-55.5-66.2-89.9C248.2 397.3 240 359.4 240 320c0-36.7 7.2-72.4 21.4-105.9 13.7-32.4 33.3-61.5 58.3-86.5s54.1-44.6 86.5-58.3C439.6 55.2 475.3 48 512 48m0-48C335.3 0 192 143.3 192 320c0 94.7 41.2 179.9 106.6 238.5C122.4 639.4 0 817.4 0 1024h1024c0-206.6-122.4-384.6-298.6-465.5C790.8 499.9 832 414.7 832 320 832 143.3 688.7 0 512 0z" /></svg>